<svg width="35" height="40" viewBox="0 0 35 40" fill="none" xmlns="http://www.w3.org/2000/svg">
    <path
        d="M34.9982 11.5008C34.9979 10.843 34.8564 10.2618 34.5703 9.76311C34.2893 9.27245 33.8685 8.86132 33.304 8.53625C28.6446 5.86451 23.9806 3.20093 19.3227 0.526463C18.0669 -0.194482 16.8494 -0.168063 15.6029 0.563232C13.7483 1.65078 4.46294 6.94102 1.69603 8.53475C0.556533 9.19088 0.00205413 10.1948 0.00178025 11.4996C0 16.8726 0.00178025 22.2456 0 27.6187C0 28.262 0.13571 28.8321 0.409183 29.3233C0.690325 29.8286 1.11704 30.2511 1.69452 30.5835C4.46157 32.1772 13.7482 37.4671 15.6024 38.555C16.8494 39.2867 18.0669 39.3129 19.3231 38.5918C23.9812 35.9172 28.6454 33.2536 33.3055 30.5819C33.883 30.2496 34.3097 29.8269 34.5909 29.3219C34.8639 28.8306 34.9999 28.2606 34.9999 27.6172C34.9999 27.6172 34.9999 16.874 34.9982 11.5008Z"
        fill="#A179DC" />
    <path
        d="M17.5535 19.5068L0.40921 29.3233C0.690352 29.8286 1.11706 30.2511 1.69455 30.5835C4.4616 32.1772 13.7482 37.4671 15.6024 38.555C16.8494 39.2867 18.0669 39.3129 19.3231 38.5918C23.9812 35.9172 28.6454 33.2536 33.3056 30.5819C33.8831 30.2496 34.3098 29.8269 34.5909 29.3219L17.5535 19.5068Z"
        fill="#280068" />
    <path
        d="M34.9982 11.5008C34.9979 10.843 34.8565 10.2618 34.5704 9.76312L17.5536 19.5069L34.591 29.322C34.864 28.8306 34.9997 28.2607 35 27.6172C35 27.6172 35 16.874 34.9982 11.5008"
        fill="#390091" />
    <path
        d="M27.6475 15.8371V17.672H29.4927V15.8371H30.4152V17.672H32.2604V18.5895H30.4152V20.4242H32.2604V21.3417H30.4152V23.1766H29.4927V21.3417H27.6475V23.1766H26.7249V21.3417H24.8799V20.4242H26.7249V18.5895H24.8799V17.672H26.7249V15.8371H27.6475ZM29.4927 18.5893H27.6475V20.4242H29.4927V18.5893Z"
        fill="white" />
    <path
        d="M17.5912 6.62196C22.4039 6.62196 26.6057 9.22112 28.8563 13.0846L28.8344 13.0474L23.1718 16.2896C22.0563 14.4113 20.0112 13.1436 17.665 13.1174L17.591 13.117C14.0134 13.117 11.113 16.0013 11.113 19.5591C11.1118 20.6804 11.4064 21.7825 11.9674 22.7553C13.084 24.6938 15.1832 26.0013 17.5912 26.0013C20.0141 26.0013 22.1252 24.6772 23.2361 22.7179L23.2091 22.7649L28.863 26.0221C26.637 29.8529 22.4927 32.444 17.7361 32.4956L17.5912 32.4965C12.7633 32.4965 8.54958 29.8812 6.30455 25.9973C5.2086 24.1013 4.58154 21.9032 4.58154 19.5591C4.58154 12.4142 10.406 6.62183 17.591 6.62183L17.5912 6.62196Z"
        fill="white" />
</svg>