<svg width="374" height="361" viewBox="0 0 374 361" fill="none" xmlns="http://www.w3.org/2000/svg">
    <g clip-path="url(#clip0_102_2)">
        <path
            d="M308.214 217.035C308.93 215.49 309.445 215.065 309.601 214.416C310.343 169.316 296.231 129.623 263.815 97.6653C255.649 89.575 245.558 83.7674 234.304 80.2207C210.248 72.4095 185.042 80.8104 170.471 101.334C162.816 111.988 157.358 123.517 157.416 136.998C162.171 140.965 167.038 144.753 171.211 148.854C177.986 155.578 181.871 163.732 181.23 173.54C180.923 180.817 177.566 186.189 172.906 187.261C166.788 188.667 161.765 185.528 159.093 180.622C155.366 173.811 152.446 166.509 149.996 159.251C148.445 154.547 147.992 149.285 147.315 144.38C125.14 134.756 104.556 148.535 98.6661 176.724C101.089 179.234 103.691 181.856 106.002 184.545C114.349 194.741 118.283 206.411 115.336 219.509C114.198 224.524 111.939 229.337 105.934 230.564C101.385 231.457 96.3616 228.318 93.1285 222.314C88.1439 212.725 86.9462 202.267 86.8018 191.719C86.8655 188.024 86.9293 184.329 87.1724 180.746C53.5388 164.71 13.7256 178.922 9.05254 214.345C6.83218 212.709 4.74683 211.655 4.11797 210.266C3.4216 208.586 3.9348 206.167 4.58302 204.332C11.2234 187.318 21.8569 174.292 40.2529 169.604C53.9882 165.986 67.7273 166.355 81.6708 169.59C83.6212 170.062 85.5715 170.534 87.6337 170.826C87.8131 170.938 88.2162 170.693 89.202 170.313C90.0296 168.589 91.2605 166.619 92.1325 164.425C103.359 138.076 117.65 129.578 147.012 132.489C147.637 129.891 148.486 126.936 149.044 124.048C152.995 107.345 161.252 93.3328 174.644 82.2805C196.389 64.2476 225.12 61.7837 250.884 75.6425C264.899 83.155 276.362 93.5544 285.899 106.236C308.833 137 320.61 171.249 318.091 210.011C318.093 212.004 317.804 214.064 317.806 216.057C317.873 216.348 318.12 216.751 318.861 217.961C324.1 212.77 327.143 206.703 330.365 200.749C333.654 195.086 336.696 189.02 340.142 182.707C344.47 186.159 344.698 189.787 343.872 193.504C342.711 197.758 341.908 202.236 339.85 205.929C334.166 215.823 328.192 225.783 321.5 235.296C316.15 242.659 310.681 242.23 306.528 234.904C297.839 219.266 289.263 203.45 280.687 187.633C279.317 185.035 278.53 182.302 277.249 178.763C283.322 177.827 285.297 181.053 287.205 183.988C293.76 195.056 300.65 205.586 308.214 217.035ZM103.908 221.829C110.014 208.465 106.932 195.832 96.1445 188.345C96.3796 199.945 96.3002 210.851 103.908 221.829ZM169.536 178.681C173.626 166.547 169.582 157.049 157.967 151.285C159.456 161.677 161.146 170.949 169.536 178.681Z"
            fill="#71717A" />
    </g>
    <defs>
        <clipPath id="clip0_102_2">
            <rect width="246" height="287" fill="white"
                transform="translate(0.125 208.766) rotate(-58)" />
        </clipPath>
    </defs>
</svg>