<svg width="35" height="35" viewBox="0 0 35 35" fill="none" xmlns="http://www.w3.org/2000/svg">
    <path d="M35 0H0V34.8056H35V0Z" fill="#F7DF1E" />
    <path
        d="M23.5111 27.192C24.2161 28.3367 25.1334 29.1781 26.7556 29.1781C28.1184 29.1781 28.9889 28.5008 28.9889 27.5649C28.9889 26.4434 28.0945 26.0462 26.5945 25.3937L25.7722 25.0429C23.3989 24.0374 21.8222 22.7778 21.8222 20.1149C21.8222 17.6619 23.7017 15.7946 26.6389 15.7946C28.73 15.7946 30.2334 16.5183 31.3167 18.4133L28.7556 20.0486C28.1917 19.0431 27.5834 18.647 26.6389 18.647C25.6756 18.647 25.065 19.2547 25.065 20.0486C25.065 21.0298 25.6761 21.427 27.0872 22.0347L27.9095 22.385C30.7039 23.5766 32.2817 24.7915 32.2817 27.5229C32.2817 30.4676 29.9556 32.0808 26.8317 32.0808C23.7772 32.0808 21.8039 30.6333 20.8384 28.7361L23.5111 27.192ZM11.8928 27.4754C12.4095 28.387 12.8795 29.1577 14.0095 29.1577C15.09 29.1577 15.7717 28.7373 15.7717 27.1025V15.9813H19.0606V27.1467C19.0606 30.5333 17.0639 32.0747 14.1495 32.0747C11.5161 32.0747 9.99113 30.7195 9.21558 29.0872L11.8928 27.4754Z"
        fill="black" />
</svg>