<svg width="13.17" height="24" viewBox="0 0 14 34" fill="none" xmlns="http://www.w3.org/2000/svg">
    <path
        d="M6.49518 0.0903931L7.27786 1.74981C7.45382 2.05604 7.64445 2.32709 7.86899 2.57952C8.52729 3.31336 9.1409 4.09657 9.70563 4.92382C11.0318 6.88946 11.9263 9.07237 12.5651 11.4332C12.9482 12.8754 13.1562 14.3548 13.1718 15.8507C13.2359 20.3231 11.8777 24.1634 9.13924 27.355C8.6938 27.8611 8.21258 28.3254 7.70036 28.7433C7.42908 28.7433 7.30077 28.5085 7.18896 28.2923C6.98534 27.8913 6.84982 27.451 6.78937 26.9939C6.69314 26.4528 6.6299 25.9118 6.66106 25.3531V25.1007C6.63906 25.0469 6.39986 0.217643 6.49518 0.0903931Z"
        fill="#599636" />
    <path
        d="M6.49519 0.0355917C6.46311 -0.0368269 6.43104 0.0180043 6.39896 0.0531791C6.41454 0.415272 6.30273 0.738053 6.12768 1.04635C5.93522 1.35258 5.68044 1.58742 5.42474 1.83985C4.00419 3.22822 2.88608 4.90523 1.99067 6.78087C0.799244 9.30518 0.1852 12.0105 0.0110681 14.8587C-0.068666 15.886 0.298844 19.511 0.585703 20.557C1.36838 23.3337 2.77427 25.6604 4.59532 27.6799C5.04256 28.1661 5.52097 28.6172 6.01587 29.0506C6.15976 29.0506 6.17534 28.9058 6.20833 28.7982C6.27142 28.568 6.31951 28.3329 6.35222 28.0947L6.67299 25.3904L6.49519 0.0355917Z"
        fill="#6CAC48" />
    <path
        d="M7.27787 29.8421C7.30995 29.4282 7.48591 29.0848 7.67746 28.7423C7.485 28.6523 7.34202 28.4734 7.23021 28.2737C7.1338 28.0846 7.05399 27.8854 6.99193 27.6788C6.7683 26.9215 6.72065 26.127 6.65649 25.3532V24.8845C6.57676 24.9569 6.56026 25.5694 6.56026 25.6604C6.51362 26.4783 6.41747 27.2916 6.27248 28.0947C6.22483 28.4196 6.19275 28.7434 6.01587 29.032C6.01587 29.0682 6.01587 29.1044 6.03145 29.1582C6.31923 30.1142 6.39804 31.0877 6.44662 32.0798V32.4419C6.44662 32.8743 6.43104 32.7833 6.74906 32.9281C6.87737 32.9819 7.02034 33.0005 7.14865 33.1081C7.24488 33.1081 7.26046 33.0181 7.26046 32.9457L7.2128 32.3508V30.6914C7.19722 30.4018 7.24488 30.1142 7.27695 29.8431L7.27787 29.8421Z"
        fill="#C2BFBF" />
</svg>