<svg width="35" height="35" viewBox="0 0 35 35" fill="none" xmlns="http://www.w3.org/2000/svg">
    <path
        d="M32.2386 26.8234C30.3343 26.7754 28.8584 26.9677 27.6206 27.4962C27.2635 27.6403 26.6921 27.6404 26.6445 28.097C26.835 28.2893 26.8588 28.6017 27.0254 28.8659C27.3114 29.3464 27.8109 29.9953 28.2633 30.3319C28.7631 30.7162 29.2632 31.1006 29.7866 31.437C30.7151 32.0138 31.7626 32.3501 32.6672 32.9269C33.1911 33.2631 33.7144 33.6959 34.2382 34.0562C34.5 34.2482 34.6666 34.5609 35 34.6809V34.609C34.8332 34.3925 34.7856 34.0803 34.6191 33.84C34.3813 33.5996 34.1429 33.3833 33.9049 33.143C33.2146 32.2061 32.3577 31.389 31.4293 30.7162C30.6676 30.1875 29.0011 29.4667 28.6918 28.5775C28.6918 28.5775 28.6678 28.5536 28.6442 28.5296C29.1678 28.4815 29.7866 28.2893 30.2867 28.1451C31.096 27.9287 31.8339 27.9769 32.6672 27.7606C33.0479 27.6645 33.4289 27.5443 33.8096 27.4241V27.208C33.3814 26.7754 33.0719 26.1988 32.6196 25.7903C31.4055 24.7327 30.0723 23.6996 28.6918 22.8346C27.9538 22.354 27.0015 22.0416 26.216 21.6332C25.9306 21.4888 25.4543 21.4169 25.2878 21.1766C24.8591 20.648 24.621 19.9512 24.3117 19.3264C23.6216 18.0046 22.9548 16.539 22.3596 15.1454C21.9314 14.2082 21.6695 13.2709 21.1457 12.4061C18.6939 8.32107 16.0278 5.84607 11.9335 3.419C11.0526 2.91447 10.0052 2.69818 8.88644 2.43397C8.29154 2.4098 7.69622 2.36187 7.10118 2.3377C6.72027 2.16948 6.33935 1.71302 6.00605 1.49673C4.64946 0.631584 1.14994 -1.24248 0.150181 1.23252C-0.492612 2.79431 1.10247 4.33207 1.64976 5.12526C2.05475 5.67785 2.57824 6.30254 2.86392 6.92737C3.03057 7.33563 3.07805 7.76848 3.2447 8.20091C3.62575 9.2579 3.98258 10.4356 4.48267 11.4209C4.74455 11.9254 5.0301 12.454 5.3634 12.9106C5.55385 13.1748 5.88702 13.2951 5.95858 13.7275C5.62541 14.2082 5.60147 14.9291 5.41087 15.5298C4.55395 18.2451 4.88739 21.6091 6.10128 23.6035C6.48206 24.204 7.38673 25.5261 8.60076 25.0212C9.67208 24.5888 9.43401 23.2191 9.74323 22.0177C9.81492 21.729 9.76731 21.537 9.91001 21.3448V21.393C10.2433 22.0656 10.5765 22.7146 10.886 23.3874C11.624 24.5646 12.9093 25.7903 13.9805 26.6073C14.552 27.0396 15.0042 27.7846 15.7184 28.049V27.9767H15.6707C15.5278 27.7605 15.3135 27.6645 15.1232 27.4961C14.6948 27.0638 14.2186 26.5351 13.8854 26.0545C12.8858 24.7087 12.0048 23.219 11.2193 21.6811C10.8385 20.9364 10.5051 20.1193 10.1957 19.3745C10.0527 19.0858 10.0527 18.6535 9.81478 18.5095C9.45768 19.038 8.93406 19.4946 8.67218 20.1433C8.22012 21.1766 8.17237 22.4501 8.00572 23.7716C7.91049 23.7959 7.95796 23.7716 7.91035 23.8199C7.1488 23.6274 6.88692 22.8346 6.60109 22.1617C5.88688 20.4558 5.76784 17.7164 6.38697 15.7461C6.55362 15.2414 7.26783 13.6556 6.98215 13.1749C6.8393 12.7183 6.36302 12.454 6.10128 12.0937C5.79193 11.637 5.45849 11.0606 5.24436 10.5558C4.67299 9.21011 4.3873 7.72028 3.76846 6.37463C3.48277 5.74981 2.98309 5.10122 2.57824 4.52446C2.12604 3.87574 1.62609 3.419 1.26898 2.65012C1.15008 2.38591 0.983294 1.95333 1.17375 1.66495C1.22137 1.4727 1.31646 1.40074 1.50705 1.35268C1.81654 1.08819 2.69741 1.42463 3.00663 1.56882C3.88749 1.92903 4.62538 2.26575 5.3634 2.77028C5.69656 3.01059 6.05367 3.4672 6.48206 3.58736H6.98201C7.74384 3.75544 8.60062 3.63542 9.31483 3.85157C10.5766 4.25997 11.7191 4.86077 12.7428 5.50963C15.8612 7.50399 18.4319 10.3395 20.1698 13.7275C20.4555 14.28 20.5744 14.7849 20.8363 15.3614C21.3363 16.539 21.9552 17.7404 22.4549 18.8938C22.9548 20.023 23.4308 21.1766 24.145 22.1138C24.5021 22.6182 25.9303 22.8827 26.5731 23.147C27.0492 23.3632 27.7873 23.5556 28.2156 23.8198C29.025 24.3242 29.8343 24.9012 30.5961 25.4537C30.977 25.7421 32.1671 26.3429 32.2386 26.8234V26.8234Z"
        fill="#00546B" />
    <path
        d="M7.95784 5.94196C7.55326 5.94196 7.26771 5.9903 6.98203 6.06225V6.11032H7.02964C7.22023 6.49483 7.55326 6.75918 7.79119 7.09548C7.98179 7.47985 8.1483 7.8645 8.33889 8.24901C8.36256 8.22484 8.38637 8.20094 8.38637 8.20094C8.71981 7.96049 8.88632 7.57612 8.88632 6.99936C8.74348 6.83127 8.71967 6.66305 8.60063 6.49483C8.45793 6.25437 8.1483 6.13435 7.95784 5.94196V5.94196Z"
        fill="#00546B" />
</svg>