<svg width="35" height="39" viewBox="0 0 35 39" fill="none" xmlns="http://www.w3.org/2000/svg">
    <path
        d="M15.9208 0.411481C16.8772 -0.135923 18.1228 -0.138396 19.0783 0.411481C23.8855 3.12776 28.6941 5.83978 33.5004 8.5577C34.4044 9.06692 35.0091 10.073 34.9999 11.1146V27.4568C35.0066 28.5416 34.3422 29.5717 33.3885 30.0694C28.5971 32.7707 23.8083 35.4753 19.0178 38.1766C18.0416 38.7347 16.771 38.6917 15.8254 38.0878C14.3889 37.2551 12.95 36.4265 11.5135 35.5946C11.2199 35.4196 10.889 35.2803 10.6817 34.9957C10.865 34.7487 11.1926 34.718 11.4588 34.6101C12.0584 34.4195 12.6091 34.1134 13.1599 33.8164C13.2992 33.7211 13.4693 33.7576 13.6028 33.8429C14.8311 34.5472 16.0486 35.272 17.281 35.9695C17.544 36.1213 17.8102 35.9198 18.0349 35.7945C22.7367 33.1372 27.4442 30.4898 32.1452 27.8317C32.3193 27.7479 32.4156 27.563 32.4015 27.3722C32.4048 21.9812 32.4023 16.5894 32.4031 11.1984C32.423 10.9819 32.2978 10.7829 32.102 10.6943C27.3273 8.00535 22.5551 5.31229 17.7812 2.62266C17.6985 2.5658 17.6005 2.53529 17.5001 2.53514C17.3998 2.535 17.3017 2.56522 17.2188 2.62184C12.4449 5.31229 7.67352 8.00782 2.89964 10.6966C2.70458 10.7854 2.57367 10.9811 2.59689 11.1984C2.59771 16.5894 2.59689 21.9812 2.59689 27.373C2.58861 27.4661 2.60906 27.5595 2.65547 27.6406C2.70189 27.7217 2.77205 27.7867 2.85651 27.8267C4.13044 28.5491 5.40602 29.2665 6.68078 29.9864C7.39893 30.3729 8.28068 30.6026 9.07191 30.3065C9.77014 30.056 10.2596 29.3435 10.2463 28.6022C10.2528 23.2427 10.243 17.8824 10.2512 12.5237C10.2338 12.2858 10.4594 12.0892 10.6908 12.1116C11.3029 12.1075 11.9158 12.1034 12.5279 12.1133C12.7834 12.1075 12.9592 12.3637 12.9276 12.6034C12.9252 17.9968 12.9342 23.3904 12.9235 28.7838C12.9252 30.2212 12.3346 31.7852 11.0051 32.4885C9.36711 33.337 7.34261 33.1571 5.72444 32.3435C4.32358 31.6443 2.98673 30.8191 1.61074 30.0701C0.65453 29.5751 -0.00661271 28.5409 0.000118231 27.4569V11.1146C-0.00990949 10.0514 0.618815 9.02708 1.55098 8.52528C6.34149 5.82178 11.1312 3.11622 15.9208 0.411481Z"
        fill="#78C02A" />
    <path
        d="M20.1001 11.7318C22.1894 11.5973 24.4262 11.6521 26.3063 12.6814C27.762 13.4702 28.569 15.1256 28.5947 16.7428C28.554 16.9609 28.326 17.0812 28.1177 17.0663C27.5116 17.0654 26.9052 17.0745 26.299 17.0621C26.0419 17.072 25.8924 16.8349 25.8601 16.6076C25.686 15.8338 25.264 15.0675 24.5357 14.6942C23.4176 14.1345 22.1213 14.1626 20.9022 14.1743C20.0122 14.2216 19.0552 14.2986 18.3012 14.822C17.7223 15.2184 17.5465 16.0187 17.7531 16.6632C17.9478 17.126 18.4821 17.2753 18.9192 17.413C21.4371 18.0715 24.1053 18.006 26.5751 18.8726C27.5977 19.2259 28.598 19.9128 28.948 20.9834C29.4058 22.4183 29.2051 24.1335 28.1842 25.2854C27.3563 26.2334 26.1505 26.7493 24.9479 27.0296C23.348 27.3863 21.6876 27.3954 20.0629 27.237C18.5351 27.0628 16.9452 26.6614 15.7658 25.6205C14.7572 24.7448 14.2647 23.3803 14.3136 22.0634C14.3252 21.841 14.5467 21.6859 14.7597 21.7042C15.3702 21.6992 15.9806 21.6976 16.5911 21.705C16.8349 21.6875 17.0157 21.8983 17.0282 22.1281C17.1408 22.8653 17.4179 23.6391 18.0608 24.0762C19.3015 24.8766 20.8582 24.8218 22.2789 24.8442C23.4558 24.792 24.777 24.7762 25.7375 23.9983C26.2442 23.5546 26.3944 22.8123 26.2574 22.1737C26.109 21.6345 25.545 21.3833 25.0607 21.219C22.575 20.4327 19.877 20.718 17.4154 19.8288C16.4161 19.4757 15.4497 18.8079 15.0658 17.7813C14.53 16.3282 14.7755 14.5309 15.9034 13.4178C17.0032 12.3107 18.5907 11.8843 20.1001 11.7317V11.7318Z"
        fill="#78C02A" />
</svg>