<svg width="24" height="26" viewBox="0 0 24 26" fill="none" xmlns="http://www.w3.org/2000/svg">
    <path
        d="M12 14.9327C13.1569 14.9327 14.0948 14 14.0948 12.8495C14.0948 11.699 13.1569 10.7663 12 10.7663C10.843 10.7663 9.90515 11.699 9.90515 12.8495C9.90515 14 10.843 14.9327 12 14.9327Z"
        fill="#0095BD" />
    <path fill-rule="evenodd" clip-rule="evenodd"
        d="M2.1502 11.7533C1.67515 12.1798 1.519 12.5516 1.519 12.8495C1.519 13.1473 1.67515 13.5191 2.1502 13.9456C2.62493 14.3717 3.35473 14.7903 4.32137 15.1573C6.2493 15.8894 8.9639 16.3579 12 16.3579C15.0361 16.3579 17.7507 15.8894 19.6786 15.1573C20.6453 14.7903 21.3751 14.3717 21.8498 13.9456C22.3249 13.5191 22.481 13.1473 22.481 12.8495C22.481 12.5516 22.3249 12.1798 21.8498 11.7533C21.3751 11.3272 20.6453 10.9086 19.6786 10.5416C17.7507 9.80955 15.0361 9.34098 12 9.34098C8.9639 9.34098 6.2493 9.80955 4.32137 10.5416C3.35473 10.9086 2.62493 11.3272 2.1502 11.7533ZM3.78217 9.1215C5.9225 8.30882 8.82814 7.82198 12 7.82198C15.1719 7.82198 18.0775 8.30882 20.2178 9.1215C21.2853 9.52682 22.2017 10.0279 22.8645 10.623C23.5271 11.2178 24 11.9687 24 12.8495C24 13.7302 23.5271 14.4812 22.8645 15.0759C22.2017 15.671 21.2853 16.1721 20.2178 16.5774C18.0775 17.3901 15.1719 17.8769 12 17.8769C8.82814 17.8769 5.9225 17.3901 3.78217 16.5774C2.71467 16.1721 1.79835 15.671 1.13547 15.0759C0.472922 14.4812 0 13.7302 0 12.8495C0 11.9687 0.472922 11.2178 1.13547 10.623C1.79835 10.0279 2.71467 9.52682 3.78217 9.1215Z"
        fill="#0095BD" />
    <path fill-rule="evenodd" clip-rule="evenodd"
        d="M8.03579 3.82024C7.42765 3.62459 7.02369 3.67504 6.76109 3.82581C6.49848 3.97659 6.25257 4.29926 6.11888 4.92082C5.98518 5.54242 5.98557 6.37964 6.14915 7.39499C6.47544 9.42023 7.42424 11.9913 8.94183 14.6053C10.4594 17.2192 12.2241 19.3219 13.8247 20.6155C14.6271 21.2641 15.356 21.683 15.9642 21.8787C16.5723 22.0743 16.9763 22.0239 17.2389 21.8731C17.5015 21.7223 17.7474 21.3997 17.8811 20.7781C18.0148 20.1565 18.0144 19.3193 17.8508 18.3039C17.5246 16.2787 16.5758 13.7076 15.0582 11.0936C13.5406 8.47969 11.7759 6.37702 10.1753 5.0834C9.37288 4.43484 8.64397 4.0159 8.03579 3.82024ZM11.1328 3.90735C12.9116 5.34501 14.7891 7.60487 16.3755 10.3373C17.9619 13.0697 18.9912 15.8166 19.3538 18.0673C19.5346 19.19 19.5564 20.2303 19.3696 21.099C19.1827 21.9678 18.7654 22.7482 18.0016 23.1868C17.2378 23.6253 16.3495 23.5945 15.4994 23.321C14.6495 23.0476 13.7544 22.5087 12.8672 21.7916C11.0884 20.3539 9.21089 18.0941 7.62451 15.3616C6.03812 12.6292 5.00883 9.88234 4.64622 7.63159C4.46535 6.50894 4.44358 5.46865 4.63043 4.59992C4.8173 3.73115 5.23464 2.95067 5.99841 2.51216C6.76218 2.07364 7.65054 2.10446 8.50056 2.37792C9.35053 2.65136 10.2456 3.19025 11.1328 3.90735Z"
        fill="#0095BD" />
    <path fill-rule="evenodd" clip-rule="evenodd"
        d="M17.8811 4.92083C17.7474 4.29927 17.5015 3.97659 17.2389 3.82582C16.9763 3.67505 16.5723 3.6246 15.9642 3.82025C15.356 4.01591 14.6271 4.43485 13.8247 5.08341C12.2241 6.37703 10.4594 8.4797 8.94183 11.0936C7.42423 13.7076 6.47544 16.2787 6.14915 18.3039C5.98557 19.3193 5.98518 20.1565 6.11888 20.7781C6.25257 21.3997 6.49848 21.7223 6.76109 21.8731C7.02369 22.0239 7.42765 22.0743 8.03579 21.8787C8.64397 21.683 9.37288 21.2641 10.1753 20.6155C11.7759 19.3219 13.5406 17.2192 15.0582 14.6053C16.5758 11.9914 17.5246 9.42024 17.8508 7.395C18.0144 6.37965 18.0148 5.54243 17.8811 4.92083ZM19.3538 7.6316C18.9912 9.88235 17.9619 12.6292 16.3755 15.3616C14.7891 18.0941 12.9116 20.3539 11.1328 21.7916C10.2456 22.5087 9.35053 23.0476 8.50056 23.321C7.65054 23.5945 6.76218 23.6253 5.99841 23.1868C5.23464 22.7483 4.81729 21.9678 4.63043 21.099C4.44358 20.2303 4.46535 19.19 4.64622 18.0673C5.00883 15.8166 6.03812 13.0697 7.62451 10.3373C9.21089 7.60488 11.0884 5.34502 12.8672 3.90735C13.7544 3.19026 14.6495 2.65137 15.4994 2.37793C16.3494 2.10447 17.2378 2.07365 18.0016 2.51217C18.7654 2.95068 19.1827 3.73116 19.3696 4.59993C19.5564 5.46866 19.5346 6.50895 19.3538 7.6316Z"
        fill="#0095BD" />
</svg>