<svg width="35" height="34" viewBox="0 0 35 34" fill="none" xmlns="http://www.w3.org/2000/svg">
    <path
        d="M24.2513 23.2057C25.5429 23.0719 26.5227 21.9585 26.4782 20.6222C26.4337 19.2861 25.3202 18.2171 23.984 18.2171H23.895C22.5142 18.2616 21.4453 19.4196 21.4899 20.8004C21.5344 21.4685 21.8016 22.0475 22.2024 22.4484C20.6881 25.4327 18.3721 27.6151 14.8981 29.4412C12.5375 30.6884 10.0879 31.1338 7.63834 30.8221C5.63404 30.5548 4.07517 29.6641 3.09517 28.1941C1.67002 26.0117 1.53644 23.6509 2.73902 21.2904C3.58531 19.5978 4.92133 18.3506 5.76762 17.7271C5.58947 17.1481 5.32219 16.1682 5.18861 15.4556C-1.26957 20.1324 -0.601427 26.4571 1.3583 29.4412C2.82803 31.6684 5.81219 33.0491 9.10806 33.0491C9.99879 33.0491 10.8895 32.96 11.7804 32.7374C17.4814 31.6238 21.8017 28.2387 24.2513 23.2057V23.2057ZM32.0902 17.6826C28.7052 13.7185 23.7169 11.536 18.0158 11.536H17.3033C16.9024 10.7343 16.0561 10.1998 15.1208 10.1998H15.0317C13.6511 10.2443 12.5822 11.4023 12.6267 12.7832C12.6712 14.1193 13.7847 15.1883 15.1208 15.1883H15.2098C16.1897 15.1438 17.036 14.5202 17.3923 13.6739H18.194C21.579 13.6739 24.7857 14.6538 27.6809 16.5691C29.9078 18.0389 31.5112 19.9542 32.4019 22.2702C33.1591 24.1409 33.1145 25.9671 32.3128 27.5261C31.0658 29.8867 28.9725 31.1784 26.211 31.1784C24.4294 31.1784 22.737 30.6438 21.8461 30.243C21.3563 30.6884 20.4654 31.401 19.8419 31.8465C21.7571 32.7373 23.7169 33.2273 25.5875 33.2273C29.8632 33.2273 33.0255 30.8665 34.2281 28.506C35.5197 25.9225 35.4305 21.4685 32.0902 17.6826V17.6826ZM9.46435 23.9627C9.50892 25.299 10.6224 26.3678 11.9585 26.3678H12.0477C13.4284 26.3234 14.4972 25.1652 14.4527 23.7845C14.4082 22.4482 13.2947 21.3794 11.9585 21.3794H11.8695C11.7804 21.3794 11.6467 21.3794 11.5578 21.4238C9.73164 18.3951 8.97449 15.0992 9.24177 11.5359C9.41978 8.86346 10.3106 6.54732 11.8695 4.63203C13.1611 2.98402 15.6553 2.1823 17.3478 2.13787C22.0689 2.04873 24.073 7.92804 24.2067 10.2888C24.7857 10.4223 25.7656 10.7342 26.4337 10.9569C25.8992 3.74144 21.4453 0 17.1697 0C13.1611 0 9.46435 2.89515 7.99449 7.17103C5.94576 12.8722 7.28191 18.3506 9.77607 22.6711C9.55349 22.9828 9.41978 23.4728 9.46435 23.9628V23.9627Z"
        fill="#764ABC" />
</svg>