<svg width="35" height="35" viewBox="0 0 35 35" fill="none" xmlns="http://www.w3.org/2000/svg">
    <path d="M0 0H35V35H0V0Z" fill="#017ACB" />
    <path
        d="M16.8055 12.9609H18.4844V15.8593H13.9453V28.7546L13.825 28.7875C13.661 28.8312 11.5008 28.8312 11.0359 28.782L10.6641 28.7492V15.8593H6.125V12.9609L7.56328 12.9445C8.35079 12.9336 10.3742 12.9336 12.0586 12.9445C13.743 12.9554 15.8758 12.9609 16.8055 12.9609V12.9609ZM29.6188 27.3875C28.9516 28.0929 28.2352 28.4867 27.043 28.8093C26.5235 28.9515 26.436 28.957 25.2657 28.9515C24.0953 28.9461 24.0024 28.9461 23.4336 28.7984C21.9625 28.4211 20.7758 27.6828 19.9664 26.6382C19.7367 26.3429 19.3594 25.7304 19.3594 25.6539C19.3594 25.632 19.4141 25.5828 19.4852 25.55C19.5563 25.5172 19.7039 25.4242 19.8242 25.3531C19.9446 25.282 20.1633 25.1507 20.311 25.0742C20.4586 24.9976 20.8852 24.7461 21.2571 24.5218C21.6289 24.2976 21.968 24.1172 22.0063 24.1172C22.0446 24.1172 22.1157 24.1937 22.1703 24.2867C22.4985 24.839 23.2641 25.5445 23.8055 25.7851C24.1391 25.9273 24.8774 26.0859 25.2328 26.0859C25.561 26.0859 26.1625 25.9437 26.4852 25.7961C26.8297 25.6375 27.0047 25.4789 27.2125 25.1617C27.3547 24.9375 27.3711 24.8773 27.3657 24.4507C27.3657 24.057 27.3438 23.9476 27.2344 23.7672C26.9282 23.264 26.5125 23.0015 24.8282 22.2578C23.0891 21.4867 22.3071 21.0273 21.6727 20.4093C21.2024 19.95 21.1094 19.8242 20.8141 19.25C20.4313 18.5117 20.3821 18.2711 20.3766 17.1718C20.3711 16.4007 20.3875 16.1492 20.4696 15.8867C20.5844 15.4929 20.9563 14.7328 21.1258 14.5414C21.4758 14.1312 21.6016 14.0054 21.8477 13.8031C22.5914 13.1906 23.7508 12.7859 24.861 12.7476C24.9868 12.7476 25.4024 12.7695 25.7907 12.7968C26.9063 12.8898 27.6664 13.1632 28.3993 13.7484C28.9516 14.1859 29.7883 15.214 29.7063 15.3507C29.6516 15.4328 27.4696 16.8875 27.3274 16.9312C27.2399 16.9586 27.1797 16.9257 27.0594 16.7836C26.3157 15.8922 26.0149 15.7007 25.293 15.657C24.7789 15.6242 24.5055 15.6843 24.161 15.914C23.8 16.1547 23.625 16.5211 23.625 17.0297C23.6305 17.7734 23.9149 18.1234 24.9649 18.6429C25.643 18.9765 26.2227 19.25 26.2664 19.25C26.3321 19.25 27.7375 19.95 28.1039 20.1687C29.8102 21.1695 30.5047 22.1976 30.6852 23.9695C30.8164 25.3039 30.4391 26.5234 29.6188 27.3875V27.3875Z"
        fill="white" />
</svg>